<?xml version="1.0" encoding="UTF-8"?>
<svg id="Layer_1" xmlns="http://www.w3.org/2000/svg" version="1.1" viewBox="0 0 179.84 194.28">
  <!-- Generator: Adobe Illustrator 30.4.0, SVG Export Plug-In . SVG Version: 2.1.4 Build 226)  -->
  <defs>
    <style>
      .st0 {
        fill: #fff;
      }
    </style>
  </defs>
  <circle class="st0" cx="47.95" cy="176.01" r="18.27"/>
  <path class="st0" d="M37.91,137.81c-10.49-8.24-3.67-13.43-18.94-19.38C3.39,112.37-3.97,94.56,2.15,79.49c6.29-15.48,23.91-22.54,39.89-16.05,16.25,6.6,35.08,9.28,46-4.63,8.42-10.72,22.8-14.34,34.41-6.89,6.85,4.39,10.75,11.51,11.22,18.74.54,8.19-2.67,15.51-9.01,20.76-4.38,3.63-7.03,8.85-7.04,14.24s2.23,11.74,7.45,14.57c9.48,5.14,16.06,14.14,16.45,24.44.42,10.95-5.01,21.1-15.1,26.65-13.21,7.27-31.33,3.38-39.24-9.96-13.47-22.71-38.79-15.32-49.28-23.56Z"/>
  <circle class="st0" cx="68.43" cy="23.74" r="23.74"/>
  <circle class="st0" cx="162.06" cy="86.03" r="17.77"/>
</svg>